<svg width="56" height="56" viewBox="0 0 56 56" fill="none" xmlns="http://www.w3.org/2000/svg">
<g clip-path="url(#clip0_3_358)">
<path fill-rule="evenodd" clip-rule="evenodd" d="M25.8945 34.5409L19.5337 28.0005L25.8945 21.4602L26.6113 22.1574L21.4149 27.5005H36.082V28.5005H21.4149L26.6113 33.8437L25.8945 34.5409Z" fill="#045CFC"/>
<path fill-rule="evenodd" clip-rule="evenodd" d="M28 1C13.0883 1 0.999995 13.0883 1 28C1 42.9117 13.0883 55 28 55C42.9117 55 55 42.9117 55 28C55 13.0883 42.9117 1 28 1ZM28 0C12.536 1.3519e-06 -1.35191e-06 12.536 0 28C1.3519e-06 43.464 12.536 56 28 56C43.464 56 56 43.464 56 28C56 12.536 43.464 -1.35187e-06 28 0Z" fill="#045CFC"/>
</g>
<defs>
<clipPath id="clip0_3_358">
<rect width="56" height="56" fill="white"/>
</clipPath>
</defs>
</svg>
